<svg width="20.000000" height="20.000000" viewBox="0 0 20 20" fill="none" xmlns="http://www.w3.org/2000/svg" xmlns:xlink="http://www.w3.org/1999/xlink">
	<desc>
			Created with Pixso.
	</desc>
	<defs/>
	<path id="Path" d="M11.4732 12.0981C10.6596 12.9117 9.34048 12.9117 8.5269 12.0981C7.7133 11.2845 7.7133 9.96542 8.5269 9.15184C9.34048 8.33824 10.6596 8.33824 11.4732 9.15184C12.2868 9.96542 12.2868 11.2845 11.4732 12.0981Z" stroke="#2A355A" stroke-opacity="1.000000" stroke-width="1.000000" stroke-linejoin="round"/>
	<path id="Path" d="M16.0448 7.09813C15.2312 7.91171 13.9122 7.91171 13.0986 7.09813C12.285 6.28453 12.285 4.96544 13.0986 4.15186C13.9122 3.33826 15.2312 3.33826 16.0448 4.15186C16.8584 4.96544 16.8584 6.28453 16.0448 7.09813Z" stroke="#2A355A" stroke-opacity="1.000000" stroke-width="1.000000" stroke-linejoin="round"/>
	<path id="Path" d="M15 10.2083C16.2775 10.2083 17.5 10.6525 18.3333 11.3192" stroke="#2A355A" stroke-opacity="1.000000" stroke-width="1.000000" stroke-linejoin="round" stroke-linecap="round"/>
	<path id="Path" d="M6.90147 7.09813C6.08788 7.91171 4.76878 7.91171 3.9552 7.09813C3.1416 6.28453 3.1416 4.96544 3.9552 4.15186C4.76878 3.33826 6.08788 3.33826 6.90147 4.15186C7.71506 4.96544 7.71506 6.28453 6.90147 7.09813Z" stroke="#2A355A" stroke-opacity="1.000000" stroke-width="1.000000" stroke-linejoin="round"/>
	<path id="Path" d="M1.66667 11.3192C2.5 10.6525 3.7225 10.2083 5 10.2083" stroke="#2A355A" stroke-opacity="1.000000" stroke-width="1.000000" stroke-linejoin="round" stroke-linecap="round"/>
	<path id="Path" d="M13.8258 16.4583C12.855 15.7075 11.46 15.2083 10 15.2083C8.53999 15.2083 7.145 15.7075 6.17416 16.4583" stroke="#2A355A" stroke-opacity="1.000000" stroke-width="1.000000" stroke-linejoin="round" stroke-linecap="round"/>
</svg>
